<svg xmlns="http://www.w3.org/2000/svg" width="240" height="24" viewBox="0 0 240 24" shape-rendering="crispEdges">
  <g fill="#fff">
    <!-- home -->
    <g transform="translate(0)"><path d="M2 10L12 2l10 8v12h-7v-7H9v7H2z"/><rect x="6" y="10" width="4" height="4" fill="#000"/><rect x="14" y="10" width="4" height="4" fill="#000"/></g>
    <!-- upscale apartment -->
    <g transform="translate(24)"><rect x="4" y="2" width="16" height="20"/><g fill="#000"><rect x="7" y="5" width="3" height="3"/><rect x="14" y="5" width="3" height="3"/><rect x="7" y="10" width="3" height="3"/><rect x="14" y="10" width="3" height="3"/><rect x="10" y="16" width="4" height="6"/></g><rect x="2" y="20" width="20" height="2"/></g>
    <!-- school -->
    <g transform="translate(48)"><rect x="2" y="8" width="20" height="14"/><path d="M5 8V4h14v4z"/><rect x="10" y="2" width="4" height="4"/><g fill="#000"><rect x="5" y="11" width="4" height="4"/><rect x="15" y="11" width="4" height="4"/><rect x="10" y="16" width="4" height="6"/></g></g>
    <!-- convenience store -->
    <g transform="translate(72)"><rect x="2" y="7" width="20" height="15"/><rect x="0" y="4" width="24" height="5"/><g fill="#000"><rect x="5" y="11" width="6" height="6"/><rect x="14" y="11" width="5" height="11"/></g></g>
    <!-- old building -->
    <g transform="translate(96)"><path d="M3 2h18v20H3z"/><g fill="#000"><rect x="6" y="5" width="4" height="4"/><rect x="14" y="5" width="4" height="4"/><rect x="6" y="12" width="4" height="4"/><rect x="14" y="12" width="4" height="4"/><rect x="10" y="17" width="4" height="5"/></g><rect x="1" y="20" width="22" height="2"/></g>
    <!-- trail -->
    <g transform="translate(120)"><path d="M3 2h18v4H7v4h12v4H9v4h8v4H3v-4h10v-4H5v-4h10V6H3z"/></g>
    <!-- inn -->
    <g transform="translate(144)"><path d="M2 9L7 3h10l5 6v13H2z"/><g fill="#000"><rect x="5" y="11" width="5" height="4"/><rect x="14" y="11" width="5" height="4"/><rect x="10" y="16" width="4" height="6"/></g></g>
    <!-- water tower -->
    <g transform="translate(168)"><rect x="5" y="2" width="14" height="5"/><rect x="7" y="7" width="10" height="5"/><rect x="7" y="12" width="3" height="10"/><rect x="14" y="12" width="3" height="10"/><rect x="5" y="17" width="14" height="3"/></g>
    <!-- hospital -->
    <g transform="translate(192)"><rect x="2" y="5" width="20" height="17"/><rect x="10" y="1" width="5" height="14"/><rect x="6" y="6" width="13" height="5" fill="#fff"/><rect x="10" y="5" width="5" height="7" fill="#000"/><rect x="6" y="7" width="13" height="3"/></g>
    <!-- observation deck -->
    <g transform="translate(216)"><rect x="1" y="18" width="22" height="4"/><rect x="4" y="3" width="3" height="15"/><rect x="17" y="3" width="3" height="15"/><rect x="4" y="3" width="16" height="3"/><rect x="8" y="9" width="8" height="3"/><rect x="10" y="12" width="4" height="6"/></g>
  </g>
</svg>
